<?xml version="1.0" encoding="UTF-8" standalone="no"?>
<!DOCTYPE svg PUBLIC "-//W3C//DTD SVG 1.1//EN"
 "http://www.w3.org/Graphics/SVG/1.1/DTD/svg11.dtd">
<!-- Generated by graphviz version 2.43.0 (0)
 -->
<!-- Title: %3 Pages: 1 -->
<svg width="1722pt" height="548pt"
 viewBox="0.00 0.00 1722.38 548.00" xmlns="http://www.w3.org/2000/svg" xmlns:xlink="http://www.w3.org/1999/xlink">
<g id="graph0" class="graph" transform="scale(1 1) rotate(0) translate(4 544)">
<title>%3</title>
<polygon fill="white" stroke="transparent" points="-4,4 -4,-544 1718.38,-544 1718.38,4 -4,4"/>
<!-- [root] aws_instance.server1 (expand) -->
<g id="node1" class="node">
<title>[root] aws_instance.server1 (expand)</title>
<polygon fill="none" stroke="black" points="544.38,-324 374.38,-324 374.38,-288 544.38,-288 544.38,-324"/>
<text text-anchor="middle" x="459.38" y="-302.3" font-family="Times,serif" font-size="14.00">aws_instance.server1</text>
</g>
<!-- [root] aws_key_pair.class1 (expand) -->
<g id="node3" class="node">
<title>[root] aws_key_pair.class1 (expand)</title>
<polygon fill="none" stroke="black" points="232.38,-180 74.38,-180 74.38,-144 232.38,-144 232.38,-180"/>
<text text-anchor="middle" x="153.38" y="-158.3" font-family="Times,serif" font-size="14.00">aws_key_pair.class1</text>
</g>
<!-- [root] aws_instance.server1 (expand)&#45;&gt;[root] aws_key_pair.class1 (expand) -->
<g id="edge1" class="edge">
<title>[root] aws_instance.server1 (expand)&#45;&gt;[root] aws_key_pair.class1 (expand)</title>
<path fill="none" stroke="black" d="M374.11,-300.55C297.73,-294.69 193.53,-281.42 165.38,-252 150.01,-235.93 148.04,-210.15 149.31,-190.46"/>
<polygon fill="black" stroke="black" points="152.82,-190.54 150.29,-180.25 145.85,-189.88 152.82,-190.54"/>
</g>
<!-- [root] aws_security_group.sg1 (expand) -->
<g id="node8" class="node">
<title>[root] aws_security_group.sg1 (expand)</title>
<polygon fill="none" stroke="black" points="856.38,-252 668.38,-252 668.38,-216 856.38,-216 856.38,-252"/>
<text text-anchor="middle" x="762.38" y="-230.3" font-family="Times,serif" font-size="14.00">aws_security_group.sg1</text>
</g>
<!-- [root] aws_instance.server1 (expand)&#45;&gt;[root] aws_security_group.sg1 (expand) -->
<g id="edge2" class="edge">
<title>[root] aws_instance.server1 (expand)&#45;&gt;[root] aws_security_group.sg1 (expand)</title>
<path fill="none" stroke="black" d="M533.12,-287.97C577.1,-277.8 633.08,-264.87 678.71,-254.33"/>
<polygon fill="black" stroke="black" points="679.62,-257.71 688.58,-252.05 678.05,-250.89 679.62,-257.71"/>
</g>
<!-- [root] aws_security_group.sg2 (expand) -->
<g id="node9" class="node">
<title>[root] aws_security_group.sg2 (expand)</title>
<polygon fill="none" stroke="black" points="650.38,-252 462.38,-252 462.38,-216 650.38,-216 650.38,-252"/>
<text text-anchor="middle" x="556.38" y="-230.3" font-family="Times,serif" font-size="14.00">aws_security_group.sg2</text>
</g>
<!-- [root] aws_instance.server1 (expand)&#45;&gt;[root] aws_security_group.sg2 (expand) -->
<g id="edge3" class="edge">
<title>[root] aws_instance.server1 (expand)&#45;&gt;[root] aws_security_group.sg2 (expand)</title>
<path fill="none" stroke="black" d="M483.36,-287.7C495.69,-278.8 510.9,-267.82 524.23,-258.2"/>
<polygon fill="black" stroke="black" points="526.62,-260.79 532.68,-252.1 522.52,-255.12 526.62,-260.79"/>
</g>
<!-- [root] aws_subnet.subnet1 (expand) -->
<g id="node11" class="node">
<title>[root] aws_subnet.subnet1 (expand)</title>
<polygon fill="none" stroke="black" points="444.38,-252 282.38,-252 282.38,-216 444.38,-216 444.38,-252"/>
<text text-anchor="middle" x="363.38" y="-230.3" font-family="Times,serif" font-size="14.00">aws_subnet.subnet1</text>
</g>
<!-- [root] aws_instance.server1 (expand)&#45;&gt;[root] aws_subnet.subnet1 (expand) -->
<g id="edge4" class="edge">
<title>[root] aws_instance.server1 (expand)&#45;&gt;[root] aws_subnet.subnet1 (expand)</title>
<path fill="none" stroke="black" d="M435.65,-287.7C423.44,-278.8 408.4,-267.82 395.2,-258.2"/>
<polygon fill="black" stroke="black" points="396.98,-255.17 386.84,-252.1 392.86,-260.82 396.98,-255.17"/>
</g>
<!-- [root] var.ami_id -->
<g id="node16" class="node">
<title>[root] var.ami_id</title>
<polygon fill="none" stroke="black" points="257.88,-252 174.88,-252 174.88,-216 263.88,-216 263.88,-246 257.88,-252"/>
<polyline fill="none" stroke="black" points="257.88,-252 257.88,-246 "/>
<polyline fill="none" stroke="black" points="263.88,-246 257.88,-246 "/>
<text text-anchor="middle" x="219.38" y="-230.3" font-family="Times,serif" font-size="14.00">var.ami_id</text>
</g>
<!-- [root] aws_instance.server1 (expand)&#45;&gt;[root] var.ami_id -->
<g id="edge5" class="edge">
<title>[root] aws_instance.server1 (expand)&#45;&gt;[root] var.ami_id</title>
<path fill="none" stroke="black" d="M398.1,-287.99C364.12,-278.46 320.87,-266.15 273.9,-252.12"/>
<polygon fill="black" stroke="black" points="274.73,-248.71 264.14,-249.19 272.72,-255.42 274.73,-248.71"/>
</g>
<!-- [root] aws_internet_gateway.gw (expand) -->
<g id="node2" class="node">
<title>[root] aws_internet_gateway.gw (expand)</title>
<polygon fill="none" stroke="black" points="1271.88,-252 1072.88,-252 1072.88,-216 1271.88,-216 1271.88,-252"/>
<text text-anchor="middle" x="1172.38" y="-230.3" font-family="Times,serif" font-size="14.00">aws_internet_gateway.gw</text>
</g>
<!-- [root] aws_vpc.main1 (expand) -->
<g id="node14" class="node">
<title>[root] aws_vpc.main1 (expand)</title>
<polygon fill="none" stroke="black" points="885.88,-180 760.88,-180 760.88,-144 885.88,-144 885.88,-180"/>
<text text-anchor="middle" x="823.38" y="-158.3" font-family="Times,serif" font-size="14.00">aws_vpc.main1</text>
</g>
<!-- [root] aws_internet_gateway.gw (expand)&#45;&gt;[root] aws_vpc.main1 (expand) -->
<g id="edge6" class="edge">
<title>[root] aws_internet_gateway.gw (expand)&#45;&gt;[root] aws_vpc.main1 (expand)</title>
<path fill="none" stroke="black" d="M1087.45,-215.97C1028.95,-204.23 952.02,-188.8 896.29,-177.62"/>
<polygon fill="black" stroke="black" points="896.64,-174.12 886.14,-175.59 895.26,-180.99 896.64,-174.12"/>
</g>
<!-- [root] provider[&quot;registry.terraform.io/hashicorp/aws&quot;] -->
<g id="node15" class="node">
<title>[root] provider[&quot;registry.terraform.io/hashicorp/aws&quot;]</title>
<polygon fill="none" stroke="black" points="325.38,-108 0.12,-90 325.38,-72 650.65,-90 325.38,-108"/>
<text text-anchor="middle" x="325.38" y="-86.3" font-family="Times,serif" font-size="14.00">provider[&quot;registry.terraform.io/hashicorp/aws&quot;]</text>
</g>
<!-- [root] aws_key_pair.class1 (expand)&#45;&gt;[root] provider[&quot;registry.terraform.io/hashicorp/aws&quot;] -->
<g id="edge7" class="edge">
<title>[root] aws_key_pair.class1 (expand)&#45;&gt;[root] provider[&quot;registry.terraform.io/hashicorp/aws&quot;]</title>
<path fill="none" stroke="black" d="M195.46,-143.88C220.79,-133.57 253.07,-120.43 279.12,-109.83"/>
<polygon fill="black" stroke="black" points="280.47,-113.06 288.41,-106.05 277.83,-106.57 280.47,-113.06"/>
</g>
<!-- [root] aws_route_table.r (expand) -->
<g id="node4" class="node">
<title>[root] aws_route_table.r (expand)</title>
<polygon fill="none" stroke="black" points="1234.88,-324 1091.88,-324 1091.88,-288 1234.88,-288 1234.88,-324"/>
<text text-anchor="middle" x="1163.38" y="-302.3" font-family="Times,serif" font-size="14.00">aws_route_table.r</text>
</g>
<!-- [root] aws_route_table.r (expand)&#45;&gt;[root] aws_internet_gateway.gw (expand) -->
<g id="edge8" class="edge">
<title>[root] aws_route_table.r (expand)&#45;&gt;[root] aws_internet_gateway.gw (expand)</title>
<path fill="none" stroke="black" d="M1165.61,-287.7C1166.6,-279.98 1167.79,-270.71 1168.9,-262.11"/>
<polygon fill="black" stroke="black" points="1172.38,-262.47 1170.18,-252.1 1165.44,-261.58 1172.38,-262.47"/>
</g>
<!-- [root] aws_route_table_association.ra1 (expand) -->
<g id="node5" class="node">
<title>[root] aws_route_table_association.ra1 (expand)</title>
<polygon fill="none" stroke="black" points="897.88,-396 650.88,-396 650.88,-360 897.88,-360 897.88,-396"/>
<text text-anchor="middle" x="774.38" y="-374.3" font-family="Times,serif" font-size="14.00">aws_route_table_association.ra1</text>
</g>
<!-- [root] aws_route_table_association.ra1 (expand)&#45;&gt;[root] aws_route_table.r (expand) -->
<g id="edge9" class="edge">
<title>[root] aws_route_table_association.ra1 (expand)&#45;&gt;[root] aws_route_table.r (expand)</title>
<path fill="none" stroke="black" d="M872.06,-359.97C930.5,-349.71 1006.23,-336.29 1073.38,-324 1076.07,-323.51 1078.81,-323 1081.58,-322.49"/>
<polygon fill="black" stroke="black" points="1082.48,-325.89 1091.67,-320.62 1081.2,-319 1082.48,-325.89"/>
</g>
<!-- [root] aws_route_table_association.ra1 (expand)&#45;&gt;[root] aws_subnet.subnet1 (expand) -->
<g id="edge10" class="edge">
<title>[root] aws_route_table_association.ra1 (expand)&#45;&gt;[root] aws_subnet.subnet1 (expand)</title>
<path fill="none" stroke="black" d="M735.75,-359.92C692.02,-340.95 618.4,-310.08 553.38,-288 517.08,-275.67 476.19,-263.99 441.68,-254.75"/>
<polygon fill="black" stroke="black" points="442.21,-251.27 431.65,-252.08 440.42,-258.03 442.21,-251.27"/>
</g>
<!-- [root] aws_route_table_association.ra2 (expand) -->
<g id="node6" class="node">
<title>[root] aws_route_table_association.ra2 (expand)</title>
<polygon fill="none" stroke="black" points="1162.88,-396 915.88,-396 915.88,-360 1162.88,-360 1162.88,-396"/>
<text text-anchor="middle" x="1039.38" y="-374.3" font-family="Times,serif" font-size="14.00">aws_route_table_association.ra2</text>
</g>
<!-- [root] aws_route_table_association.ra2 (expand)&#45;&gt;[root] aws_route_table.r (expand) -->
<g id="edge11" class="edge">
<title>[root] aws_route_table_association.ra2 (expand)&#45;&gt;[root] aws_route_table.r (expand)</title>
<path fill="none" stroke="black" d="M1069.72,-359.88C1086.08,-350.64 1106.46,-339.13 1124.04,-329.21"/>
<polygon fill="black" stroke="black" points="1125.94,-332.15 1132.93,-324.19 1122.5,-326.06 1125.94,-332.15"/>
</g>
<!-- [root] aws_subnet.subnet2 (expand) -->
<g id="node12" class="node">
<title>[root] aws_subnet.subnet2 (expand)</title>
<polygon fill="none" stroke="black" points="1064.38,-324 902.38,-324 902.38,-288 1064.38,-288 1064.38,-324"/>
<text text-anchor="middle" x="983.38" y="-302.3" font-family="Times,serif" font-size="14.00">aws_subnet.subnet2</text>
</g>
<!-- [root] aws_route_table_association.ra2 (expand)&#45;&gt;[root] aws_subnet.subnet2 (expand) -->
<g id="edge12" class="edge">
<title>[root] aws_route_table_association.ra2 (expand)&#45;&gt;[root] aws_subnet.subnet2 (expand)</title>
<path fill="none" stroke="black" d="M1025.54,-359.7C1018.89,-351.39 1010.8,-341.28 1003.49,-332.14"/>
<polygon fill="black" stroke="black" points="1006.05,-329.73 997.07,-324.1 1000.58,-334.1 1006.05,-329.73"/>
</g>
<!-- [root] aws_route_table_association.ra3 (expand) -->
<g id="node7" class="node">
<title>[root] aws_route_table_association.ra3 (expand)</title>
<polygon fill="none" stroke="black" points="1427.88,-396 1180.88,-396 1180.88,-360 1427.88,-360 1427.88,-396"/>
<text text-anchor="middle" x="1304.38" y="-374.3" font-family="Times,serif" font-size="14.00">aws_route_table_association.ra3</text>
</g>
<!-- [root] aws_route_table_association.ra3 (expand)&#45;&gt;[root] aws_route_table.r (expand) -->
<g id="edge13" class="edge">
<title>[root] aws_route_table_association.ra3 (expand)&#45;&gt;[root] aws_route_table.r (expand)</title>
<path fill="none" stroke="black" d="M1269.89,-359.88C1250.94,-350.47 1227.25,-338.71 1207.03,-328.67"/>
<polygon fill="black" stroke="black" points="1208.52,-325.5 1198.01,-324.19 1205.41,-331.77 1208.52,-325.5"/>
</g>
<!-- [root] aws_subnet.subnet3 (expand) -->
<g id="node13" class="node">
<title>[root] aws_subnet.subnet3 (expand)</title>
<polygon fill="none" stroke="black" points="1491.38,-324 1329.38,-324 1329.38,-288 1491.38,-288 1491.38,-324"/>
<text text-anchor="middle" x="1410.38" y="-302.3" font-family="Times,serif" font-size="14.00">aws_subnet.subnet3</text>
</g>
<!-- [root] aws_route_table_association.ra3 (expand)&#45;&gt;[root] aws_subnet.subnet3 (expand) -->
<g id="edge14" class="edge">
<title>[root] aws_route_table_association.ra3 (expand)&#45;&gt;[root] aws_subnet.subnet3 (expand)</title>
<path fill="none" stroke="black" d="M1330.31,-359.88C1344.04,-350.81 1361.09,-339.55 1375.92,-329.76"/>
<polygon fill="black" stroke="black" points="1377.94,-332.62 1384.35,-324.19 1374.08,-326.78 1377.94,-332.62"/>
</g>
<!-- [root] aws_security_group.sg1 (expand)&#45;&gt;[root] aws_vpc.main1 (expand) -->
<g id="edge15" class="edge">
<title>[root] aws_security_group.sg1 (expand)&#45;&gt;[root] aws_vpc.main1 (expand)</title>
<path fill="none" stroke="black" d="M777.46,-215.7C784.77,-207.3 793.69,-197.07 801.72,-187.86"/>
<polygon fill="black" stroke="black" points="804.55,-189.94 808.48,-180.1 799.27,-185.34 804.55,-189.94"/>
</g>
<!-- [root] aws_security_group.sg2 (expand)&#45;&gt;[root] aws_vpc.main1 (expand) -->
<g id="edge16" class="edge">
<title>[root] aws_security_group.sg2 (expand)&#45;&gt;[root] aws_vpc.main1 (expand)</title>
<path fill="none" stroke="black" d="M621.36,-215.97C660.57,-205.68 710.61,-192.57 751.08,-181.96"/>
<polygon fill="black" stroke="black" points="752.09,-185.31 760.88,-179.39 750.32,-178.54 752.09,-185.31"/>
</g>
<!-- [root] aws_security_group.sg3 (expand) -->
<g id="node10" class="node">
<title>[root] aws_security_group.sg3 (expand)</title>
<polygon fill="none" stroke="black" points="1714.38,-396 1526.38,-396 1526.38,-360 1714.38,-360 1714.38,-396"/>
<text text-anchor="middle" x="1620.38" y="-374.3" font-family="Times,serif" font-size="14.00">aws_security_group.sg3</text>
</g>
<!-- [root] aws_security_group.sg3 (expand)&#45;&gt;[root] aws_vpc.main1 (expand) -->
<g id="edge17" class="edge">
<title>[root] aws_security_group.sg3 (expand)&#45;&gt;[root] aws_vpc.main1 (expand)</title>
<path fill="none" stroke="black" d="M1637.46,-359.7C1667.2,-327.51 1721.77,-257.9 1682.38,-216 1655.61,-187.53 1098.76,-170.19 896.22,-164.81"/>
<polygon fill="black" stroke="black" points="896.07,-161.3 885.98,-164.54 895.88,-168.3 896.07,-161.3"/>
</g>
<!-- [root] aws_subnet.subnet1 (expand)&#45;&gt;[root] aws_vpc.main1 (expand) -->
<g id="edge18" class="edge">
<title>[root] aws_subnet.subnet1 (expand)&#45;&gt;[root] aws_vpc.main1 (expand)</title>
<path fill="none" stroke="black" d="M444.79,-217.46C447.69,-216.96 450.56,-216.47 453.38,-216 556.25,-198.93 675.76,-182.4 750.49,-172.47"/>
<polygon fill="black" stroke="black" points="751.28,-175.89 760.73,-171.11 750.36,-168.96 751.28,-175.89"/>
</g>
<!-- [root] var.availability_zone_1a -->
<g id="node17" class="node">
<title>[root] var.availability_zone_1a</title>
<polygon fill="none" stroke="black" points="435.88,-180 256.88,-180 256.88,-144 441.88,-144 441.88,-174 435.88,-180"/>
<polyline fill="none" stroke="black" points="435.88,-180 435.88,-174 "/>
<polyline fill="none" stroke="black" points="441.88,-174 435.88,-174 "/>
<text text-anchor="middle" x="349.38" y="-158.3" font-family="Times,serif" font-size="14.00">var.availability_zone_1a</text>
</g>
<!-- [root] aws_subnet.subnet1 (expand)&#45;&gt;[root] var.availability_zone_1a -->
<g id="edge19" class="edge">
<title>[root] aws_subnet.subnet1 (expand)&#45;&gt;[root] var.availability_zone_1a</title>
<path fill="none" stroke="black" d="M359.92,-215.7C358.38,-207.98 356.52,-198.71 354.8,-190.11"/>
<polygon fill="black" stroke="black" points="358.2,-189.22 352.8,-180.1 351.33,-190.6 358.2,-189.22"/>
</g>
<!-- [root] var.subnet_1_cidr -->
<g id="node21" class="node">
<title>[root] var.subnet_1_cidr</title>
<polygon fill="none" stroke="black" points="596.38,-180 460.38,-180 460.38,-144 602.38,-144 602.38,-174 596.38,-180"/>
<polyline fill="none" stroke="black" points="596.38,-180 596.38,-174 "/>
<polyline fill="none" stroke="black" points="602.38,-174 596.38,-174 "/>
<text text-anchor="middle" x="531.38" y="-158.3" font-family="Times,serif" font-size="14.00">var.subnet_1_cidr</text>
</g>
<!-- [root] aws_subnet.subnet1 (expand)&#45;&gt;[root] var.subnet_1_cidr -->
<g id="edge20" class="edge">
<title>[root] aws_subnet.subnet1 (expand)&#45;&gt;[root] var.subnet_1_cidr</title>
<path fill="none" stroke="black" d="M404.48,-215.88C427.55,-206.26 456.52,-194.19 480.95,-184.01"/>
<polygon fill="black" stroke="black" points="482.53,-187.15 490.42,-180.07 479.84,-180.68 482.53,-187.15"/>
</g>
<!-- [root] aws_subnet.subnet2 (expand)&#45;&gt;[root] aws_vpc.main1 (expand) -->
<g id="edge21" class="edge">
<title>[root] aws_subnet.subnet2 (expand)&#45;&gt;[root] aws_vpc.main1 (expand)</title>
<path fill="none" stroke="black" d="M953.6,-287.79C937.97,-278.14 918.9,-265.39 903.38,-252 880.77,-232.49 858.33,-206.84 843,-188.08"/>
<polygon fill="black" stroke="black" points="845.69,-185.84 836.68,-180.25 840.24,-190.23 845.69,-185.84"/>
</g>
<!-- [root] var.subnet_2_cidr -->
<g id="node22" class="node">
<title>[root] var.subnet_2_cidr</title>
<polygon fill="none" stroke="black" points="1048.38,-252 912.38,-252 912.38,-216 1054.38,-216 1054.38,-246 1048.38,-252"/>
<polyline fill="none" stroke="black" points="1048.38,-252 1048.38,-246 "/>
<polyline fill="none" stroke="black" points="1054.38,-246 1048.38,-246 "/>
<text text-anchor="middle" x="983.38" y="-230.3" font-family="Times,serif" font-size="14.00">var.subnet_2_cidr</text>
</g>
<!-- [root] aws_subnet.subnet2 (expand)&#45;&gt;[root] var.subnet_2_cidr -->
<g id="edge22" class="edge">
<title>[root] aws_subnet.subnet2 (expand)&#45;&gt;[root] var.subnet_2_cidr</title>
<path fill="none" stroke="black" d="M983.38,-287.7C983.38,-279.98 983.38,-270.71 983.38,-262.11"/>
<polygon fill="black" stroke="black" points="986.88,-262.1 983.38,-252.1 979.88,-262.1 986.88,-262.1"/>
</g>
<!-- [root] aws_subnet.subnet3 (expand)&#45;&gt;[root] aws_vpc.main1 (expand) -->
<g id="edge23" class="edge">
<title>[root] aws_subnet.subnet3 (expand)&#45;&gt;[root] aws_vpc.main1 (expand)</title>
<path fill="none" stroke="black" d="M1425.44,-287.86C1440.81,-268.25 1459.97,-236.25 1441.38,-216 1405.17,-176.55 1052.07,-166.41 896.43,-163.85"/>
<polygon fill="black" stroke="black" points="896.07,-160.34 886.02,-163.68 895.96,-167.34 896.07,-160.34"/>
</g>
<!-- [root] var.availability_zone_1c -->
<g id="node19" class="node">
<title>[root] var.availability_zone_1c</title>
<polygon fill="none" stroke="black" points="1666.88,-252 1487.88,-252 1487.88,-216 1672.88,-216 1672.88,-246 1666.88,-252"/>
<polyline fill="none" stroke="black" points="1666.88,-252 1666.88,-246 "/>
<polyline fill="none" stroke="black" points="1672.88,-246 1666.88,-246 "/>
<text text-anchor="middle" x="1580.38" y="-230.3" font-family="Times,serif" font-size="14.00">var.availability_zone_1c</text>
</g>
<!-- [root] aws_subnet.subnet3 (expand)&#45;&gt;[root] var.availability_zone_1c -->
<g id="edge24" class="edge">
<title>[root] aws_subnet.subnet3 (expand)&#45;&gt;[root] var.availability_zone_1c</title>
<path fill="none" stroke="black" d="M1451.97,-287.88C1475.41,-278.22 1504.89,-266.09 1529.68,-255.88"/>
<polygon fill="black" stroke="black" points="1531.02,-259.11 1538.93,-252.07 1528.35,-252.64 1531.02,-259.11"/>
</g>
<!-- [root] var.subnet_3_cidr -->
<g id="node23" class="node">
<title>[root] var.subnet_3_cidr</title>
<polygon fill="none" stroke="black" points="1426.38,-252 1290.38,-252 1290.38,-216 1432.38,-216 1432.38,-246 1426.38,-252"/>
<polyline fill="none" stroke="black" points="1426.38,-252 1426.38,-246 "/>
<polyline fill="none" stroke="black" points="1432.38,-246 1426.38,-246 "/>
<text text-anchor="middle" x="1361.38" y="-230.3" font-family="Times,serif" font-size="14.00">var.subnet_3_cidr</text>
</g>
<!-- [root] aws_subnet.subnet3 (expand)&#45;&gt;[root] var.subnet_3_cidr -->
<g id="edge25" class="edge">
<title>[root] aws_subnet.subnet3 (expand)&#45;&gt;[root] var.subnet_3_cidr</title>
<path fill="none" stroke="black" d="M1398.27,-287.7C1392.51,-279.47 1385.52,-269.48 1379.18,-260.42"/>
<polygon fill="black" stroke="black" points="1381.96,-258.29 1373.35,-252.1 1376.22,-262.3 1381.96,-258.29"/>
</g>
<!-- [root] aws_vpc.main1 (expand)&#45;&gt;[root] provider[&quot;registry.terraform.io/hashicorp/aws&quot;] -->
<g id="edge26" class="edge">
<title>[root] aws_vpc.main1 (expand)&#45;&gt;[root] provider[&quot;registry.terraform.io/hashicorp/aws&quot;]</title>
<path fill="none" stroke="black" d="M760.81,-152.21C675.7,-140.24 522.59,-118.72 422.48,-104.65"/>
<polygon fill="black" stroke="black" points="422.75,-101.15 412.36,-103.23 421.78,-108.08 422.75,-101.15"/>
</g>
<!-- [root] var.vpc_cidr -->
<g id="node24" class="node">
<title>[root] var.vpc_cidr</title>
<polygon fill="none" stroke="black" points="868.38,-108 772.38,-108 772.38,-72 874.38,-72 874.38,-102 868.38,-108"/>
<polyline fill="none" stroke="black" points="868.38,-108 868.38,-102 "/>
<polyline fill="none" stroke="black" points="874.38,-102 868.38,-102 "/>
<text text-anchor="middle" x="823.38" y="-86.3" font-family="Times,serif" font-size="14.00">var.vpc_cidr</text>
</g>
<!-- [root] aws_vpc.main1 (expand)&#45;&gt;[root] var.vpc_cidr -->
<g id="edge27" class="edge">
<title>[root] aws_vpc.main1 (expand)&#45;&gt;[root] var.vpc_cidr</title>
<path fill="none" stroke="black" d="M823.38,-143.7C823.38,-135.98 823.38,-126.71 823.38,-118.11"/>
<polygon fill="black" stroke="black" points="826.88,-118.1 823.38,-108.1 819.88,-118.1 826.88,-118.1"/>
</g>
<!-- [root] var.region -->
<g id="node20" class="node">
<title>[root] var.region</title>
<polygon fill="none" stroke="black" points="363.88,-36 280.88,-36 280.88,0 369.88,0 369.88,-30 363.88,-36"/>
<polyline fill="none" stroke="black" points="363.88,-36 363.88,-30 "/>
<polyline fill="none" stroke="black" points="369.88,-30 363.88,-30 "/>
<text text-anchor="middle" x="325.38" y="-14.3" font-family="Times,serif" font-size="14.00">var.region</text>
</g>
<!-- [root] provider[&quot;registry.terraform.io/hashicorp/aws&quot;]&#45;&gt;[root] var.region -->
<g id="edge33" class="edge">
<title>[root] provider[&quot;registry.terraform.io/hashicorp/aws&quot;]&#45;&gt;[root] var.region</title>
<path fill="none" stroke="black" d="M325.38,-71.7C325.38,-63.98 325.38,-54.71 325.38,-46.11"/>
<polygon fill="black" stroke="black" points="328.88,-46.1 325.38,-36.1 321.88,-46.1 328.88,-46.1"/>
</g>
<!-- [root] var.availability_zone_1b -->
<g id="node18" class="node">
<title>[root] var.availability_zone_1b</title>
<polygon fill="none" stroke="black" points="1529.38,-468 1349.38,-468 1349.38,-432 1535.38,-432 1535.38,-462 1529.38,-468"/>
<polyline fill="none" stroke="black" points="1529.38,-468 1529.38,-462 "/>
<polyline fill="none" stroke="black" points="1535.38,-462 1529.38,-462 "/>
<text text-anchor="middle" x="1442.38" y="-446.3" font-family="Times,serif" font-size="14.00">var.availability_zone_1b</text>
</g>
<!-- [root] provider[&quot;registry.terraform.io/hashicorp/aws&quot;] (close) -->
<g id="node25" class="node">
<title>[root] provider[&quot;registry.terraform.io/hashicorp/aws&quot;] (close)</title>
<ellipse fill="none" stroke="black" cx="1039.38" cy="-450" rx="291.65" ry="18"/>
<text text-anchor="middle" x="1039.38" y="-446.3" font-family="Times,serif" font-size="14.00">[root] provider[&quot;registry.terraform.io/hashicorp/aws&quot;] (close)</text>
</g>
<!-- [root] provider[&quot;registry.terraform.io/hashicorp/aws&quot;] (close)&#45;&gt;[root] aws_instance.server1 (expand) -->
<g id="edge28" class="edge">
<title>[root] provider[&quot;registry.terraform.io/hashicorp/aws&quot;] (close)&#45;&gt;[root] aws_instance.server1 (expand)</title>
<path fill="none" stroke="black" d="M849.45,-436.3C782.68,-428.55 707.77,-416.07 641.38,-396 588.53,-380.02 532.07,-350.18 496.29,-329.48"/>
<polygon fill="black" stroke="black" points="497.61,-326.19 487.21,-324.16 494.07,-332.23 497.61,-326.19"/>
</g>
<!-- [root] provider[&quot;registry.terraform.io/hashicorp/aws&quot;] (close)&#45;&gt;[root] aws_route_table_association.ra1 (expand) -->
<g id="edge29" class="edge">
<title>[root] provider[&quot;registry.terraform.io/hashicorp/aws&quot;] (close)&#45;&gt;[root] aws_route_table_association.ra1 (expand)</title>
<path fill="none" stroke="black" d="M976.58,-432.41C938.26,-422.29 889.07,-409.3 848.8,-398.66"/>
<polygon fill="black" stroke="black" points="849.6,-395.25 839.04,-396.08 847.81,-402.02 849.6,-395.25"/>
</g>
<!-- [root] provider[&quot;registry.terraform.io/hashicorp/aws&quot;] (close)&#45;&gt;[root] aws_route_table_association.ra2 (expand) -->
<g id="edge30" class="edge">
<title>[root] provider[&quot;registry.terraform.io/hashicorp/aws&quot;] (close)&#45;&gt;[root] aws_route_table_association.ra2 (expand)</title>
<path fill="none" stroke="black" d="M1039.38,-431.7C1039.38,-423.98 1039.38,-414.71 1039.38,-406.11"/>
<polygon fill="black" stroke="black" points="1042.88,-406.1 1039.38,-396.1 1035.88,-406.1 1042.88,-406.1"/>
</g>
<!-- [root] provider[&quot;registry.terraform.io/hashicorp/aws&quot;] (close)&#45;&gt;[root] aws_route_table_association.ra3 (expand) -->
<g id="edge31" class="edge">
<title>[root] provider[&quot;registry.terraform.io/hashicorp/aws&quot;] (close)&#45;&gt;[root] aws_route_table_association.ra3 (expand)</title>
<path fill="none" stroke="black" d="M1102.18,-432.41C1140.5,-422.29 1189.69,-409.3 1229.96,-398.66"/>
<polygon fill="black" stroke="black" points="1230.95,-402.02 1239.73,-396.08 1229.17,-395.25 1230.95,-402.02"/>
</g>
<!-- [root] provider[&quot;registry.terraform.io/hashicorp/aws&quot;] (close)&#45;&gt;[root] aws_security_group.sg3 (expand) -->
<g id="edge32" class="edge">
<title>[root] provider[&quot;registry.terraform.io/hashicorp/aws&quot;] (close)&#45;&gt;[root] aws_security_group.sg3 (expand)</title>
<path fill="none" stroke="black" d="M1165.81,-433.77C1270.7,-421.13 1418.05,-403.38 1516.24,-391.55"/>
<polygon fill="black" stroke="black" points="1516.67,-395.02 1526.18,-390.35 1515.83,-388.07 1516.67,-395.02"/>
</g>
<!-- [root] root -->
<g id="node26" class="node">
<title>[root] root</title>
<ellipse fill="none" stroke="black" cx="1240.38" cy="-522" rx="58.49" ry="18"/>
<text text-anchor="middle" x="1240.38" y="-518.3" font-family="Times,serif" font-size="14.00">[root] root</text>
</g>
<!-- [root] root&#45;&gt;[root] var.availability_zone_1b -->
<g id="edge35" class="edge">
<title>[root] root&#45;&gt;[root] var.availability_zone_1b</title>
<path fill="none" stroke="black" d="M1277.9,-508C1307.5,-497.74 1349.32,-483.25 1383.39,-471.44"/>
<polygon fill="black" stroke="black" points="1384.93,-474.61 1393.23,-468.03 1382.64,-468 1384.93,-474.61"/>
</g>
<!-- [root] root&#45;&gt;[root] provider[&quot;registry.terraform.io/hashicorp/aws&quot;] (close) -->
<g id="edge34" class="edge">
<title>[root] root&#45;&gt;[root] provider[&quot;registry.terraform.io/hashicorp/aws&quot;] (close)</title>
<path fill="none" stroke="black" d="M1203.05,-508C1173.39,-497.67 1131.39,-483.04 1097.37,-471.19"/>
<polygon fill="black" stroke="black" points="1098.14,-467.76 1087.55,-467.77 1095.84,-474.37 1098.14,-467.76"/>
</g>
</g>
</svg>
